<?xml version="1.0" encoding="UTF-8" standalone="no"?>
<svg
	xmlns:dc="http://purl.org/dc/elements/1.1/"
	xmlns:cc="http://creativecommons.org/ns#"
	xmlns:rdf="http://www.w3.org/1999/02/22-rdf-syntax-ns#"
	xmlns:svg="http://www.w3.org/2000/svg"
	xmlns="http://www.w3.org/2000/svg"
	id="svg8"
	version="1.1"
	viewBox="450 0 200 350"
	height="150mm"
	width="650mm">
	<g
		transform="translate(-7.8194086,-11.523516)"
		id="layer1">
		<path
			id="path3684"
			d="m 51.182113,24.518716 c 6.191752,5.879937 12.383497,11.759867 20.557547,16.793464 8.17405,5.033597 18.330303,9.220825 26.170241,11.225316 7.839939,2.00449 13.363589,1.826308 24.053979,1.113614 10.6904,-0.712695 26.54917,-1.960014 35.7476,-5.568249 9.19843,-3.608234 11.73754,-9.577359 14.25427,-15.100794 2.51673,-5.523434 5.01137,-10.601825 8.28523,-11.292222 3.27385,-0.690397 7.3277,3.007065 13.51953,5.546135 6.19183,2.539069 14.52175,3.919965 27.70685,3.697231 13.1851,-0.222733 31.22626,-2.049123 42.31789,-5.189624 11.09163,-3.140501 15.23439,-7.595076 24.23206,-10.557143 8.99766,-2.962068 22.85198,-4.432141 32.80759,-2.939895 9.9556,1.492246 16.01383,5.946821 22.0496,12.984833 6.03578,7.038011 12.04938,16.659786 12.42806,30.290475 0.37868,13.630689 -4.87758,31.270347 -15.59067,46.482593 -10.7131,15.21225 -26.88261,27.9964 -39.51119,34.8787 -12.62857,6.8823 -21.71556,7.86227 -30.80301,8.84229"
			style="fill:none;stroke:#000000;stroke-width:0.26458332px;stroke-linecap:butt;stroke-linejoin:miter;stroke-opacity:1" />
	</g>
	<path
		id="path3737"
		d="M 43.068842,94.837514 C 55.294186,115.697 67.519593,136.5566 80.509367,143.62435 c 12.989774,7.06774 26.743283,0.34381 32.168113,-9.97119 5.42483,-10.31501 2.5212,-24.22183 -8.09923,-30.37264 -10.620421,-6.150805 -28.958881,-4.546189 -42.941829,2.67439 -13.982948,7.22058 -23.610261,20.057 -25.444167,34.30758 -1.833905,14.25057 4.125798,29.91389 25.329667,38.35717 21.203869,8.44329 57.650419,9.66581 79.426789,-0.19104 21.77637,-9.85685 28.88246,-30.79306 27.16326,-49.28365 C 166.39278,110.65437 155.84816,94.608205 141.33071,85.401015 126.81327,76.193824 108.32225,73.82514 83.10715,78.562483 57.892051,83.299826 25.953701,95.142992 11.053772,110.88326 c -14.8999289,15.74026 -12.7605123,35.37705 -3.9351748,54.78517 8.8253378,19.40812 24.3360758,38.58642 42.1777338,48.63421 17.841658,10.04778 38.013537,10.96469 57.879709,6.49474 19.86616,-4.46995 39.42713,-14.32684 51.95652,-33.23058 12.52939,-18.90373 18.03379,-46.88442 13.56406,-62.85359 -4.46973,-15.96917 -18.91121,-19.94249 -32.24455,-18.338 -13.33334,1.60449 -25.55855,8.7868 -38.81576,20.89782 -13.257224,12.11101 -27.545175,29.14959 -35.224409,42.292 -7.679234,13.1424 -8.748934,22.38766 -5.081192,35.1484 3.667743,12.76074 12.072357,29.03513 25.482368,37.93684 13.410013,8.90171 31.824383,10.42987 49.894913,1.94846 18.07054,-8.4814 35.79769,-26.97265 41.98664,-45.99819 6.18896,-19.02555 0.84024,-38.58658 -11.69043,-43.51499 -12.53068,-4.92841 -32.24439,4.77563 -47.832,19.82828 -15.58761,15.05264 -27.048681,35.45335 -30.372568,51.34662 -3.323887,15.89326 1.489771,27.27794 11.996168,39.04509 10.50639,11.76715 26.7048,23.91596 48.74883,14.2501 22.04402,-9.66586 49.93333,-41.14639 57.07747,-63.80133 7.14414,-22.65493 -6.45679,-36.48509 -26.47568,-36.4088 -20.01888,0.0763 -46.45634,14.05911 -62.5024,36.59987 -16.04606,22.54075 -21.700221,53.63863 -8.09913,70.94546 13.6011,17.30683 46.45645,20.82159 79.31192,24.33636"
		style="fill:none;stroke:#ff6300;stroke-width:0.35277778px;stroke-linecap:butt;stroke-linejoin:miter;stroke-opacity:1" />
	<path
		id="path3741"
		d="m 232.40982,142.51659 54.55587,62.12035"
		style="fill:none;stroke:#00c200;stroke-width:0.35277778px;stroke-linecap:butt;stroke-linejoin:miter;stroke-opacity:1" />
	<path
		id="path3743"
		d="m 348.16912,146.64267 -61.20343,57.99427"
		style="fill:none;stroke:#007700;stroke-width:0.35277778px;stroke-linecap:butt;stroke-linejoin:miter;stroke-opacity:1" />
	<path
		id="path3745"
		d="m 215.21784,238.10399 c 0.30564,0 0.61721,0.0599 0.9169,0 0.10596,-0.0212 0.13258,-0.1809 0.22923,-0.22923 0.0684,-0.0342 0.1752,0.054 0.22923,0 0.054,-0.054 0,-0.15282 0,-0.22922 0.15282,-0.15282 0.28556,-0.32879 0.45845,-0.45846 0.77732,-0.58299 0.13486,0.10787 1.14613,-0.22922 0.26136,-0.0871 0.42973,-0.36172 0.68768,-0.45846 3.80871,-1.42826 -1.487,0.87306 2.29227,-0.22922 8.36562,-2.43997 0.20008,-1.50232 12.14899,-2.75072 2.51244,-0.26249 5.06374,-0.1012 7.56447,-0.45845 3.93114,-0.56159 7.82427,-1.3861 11.69055,-2.29226 1.03617,-0.24286 1.91621,-1.11289 2.97994,-1.14614 1.48287,-0.0463 2.88896,0.69132 4.3553,0.91691 0.52864,0.0813 1.07385,-0.0663 1.60459,0 0.10722,0.0134 0.14278,0.16439 0.22922,0.22923 0.2204,0.16529 0.50839,0.24928 0.68768,0.45845 0.22923,0.38204 0.45845,0.76409 0.68768,1.14613 0,0.0764 -0.0301,0.159 0,0.22923 0.22295,0.52022 1.01811,1.88137 1.14613,2.52149 0.2018,1.00899 -0.13087,1.30869 -0.22922,2.29226 0,3.04814 0.12081,-0.26642 -0.22923,1.83381 -0.0377,0.22611 0.0725,0.47022 0,0.68768 -0.0242,0.0725 -0.15282,0 -0.22923,0 -0.15282,0.38205 -0.41037,0.73748 -0.45845,1.14613 -0.10713,0.91063 0.10713,1.84009 0,2.75072 -0.0481,0.40865 -0.34022,0.75201 -0.45845,1.14613 -0.32361,1.07868 -0.30069,2.06579 -0.22923,3.20917 0.0337,0.53924 0.0808,1.08508 0.22923,1.60458 0.37557,1.31451 1.87845,3.66496 2.29226,4.58453 0.78147,1.73659 0.51851,3.72316 1.14613,5.50143 0.21424,0.60701 1.26804,2.07761 1.60459,2.75072 0.18402,0.36803 0.27443,0.7781 0.45845,1.14613 0.12321,0.24641 0.34993,0.43446 0.45845,0.68768 0.1241,0.28957 0.10513,0.62734 0.22923,0.91691 0.10852,0.25322 0.33525,0.44127 0.45845,0.68767 0.10806,0.21612 0.0584,0.51683 0.22923,0.68768 0.17085,0.17086 0.48663,0.0952 0.68768,0.22923 0.26973,0.17982 0.42389,0.49926 0.68768,0.68768 0.27806,0.19862 0.64353,0.25343 0.9169,0.45845 0.0611,0.0458 -0.054,0.1752 0,0.22923 0.27015,0.27015 0.61534,0.45312 0.91691,0.68768 0.38619,0.30037 0.77793,0.59473 1.14613,0.9169 0.42007,0.36756 0.54059,0.88953 1.14613,0.68768 0.10251,-0.0342 0.14278,-0.16439 0.22923,-0.22922 0.88114,-0.66086 2.8953,-1.69804 3.43839,-1.83381 1.7929,-0.44823 3.67568,-0.40129 5.50144,-0.68768 2.07276,-0.32514 4.09824,-0.9719 6.18911,-1.14614 8.27693,0 5.42685,0.27845 11.69054,-0.45845 7.20414,-0.84754 1.91283,0.30433 4.3553,-0.9169 0.0912,-0.0456 0.91664,-1.8e-4 0.91691,0 0.14216,0.0948 0.10841,0.33764 0.22922,0.45845 0.054,0.054 0,-0.15282 0,-0.22923"
		style="fill:none;stroke:#cca289;stroke-width:0.35277778px;stroke-linecap:butt;stroke-linejoin:miter;stroke-opacity:1" />
	<path
		id="path3747"
		d="m 255.33246,290.82605 30.94555,0.68768 60.28653,-11.23209 14.67049,45.61604 -41.48997,11.23209"
		style="fill:none;stroke:#bdd944;stroke-width:0.35277778px;stroke-linecap:butt;stroke-linejoin:miter;stroke-opacity:1" />
	<path
		id="path3749"
		d="m 266.87679,145.036409 c 12.98988,-1.298988 25.97937,-2.597936 41.94848,-1.757441 15.96912,0.840495 34.91905,3.820523 45.00482,7.258758 10.08577,3.438234 11.30833,7.335141 16.54274,10.659144 5.23441,3.324002 14.47935,6.074563 20.63019,3.514719 6.15084,-2.559844 9.20727,-10.430144 12.07241,-11.156077 2.86514,-0.725932 5.53959,5.692757 5.11942,13.219015 -0.42018,7.526258 -3.93488,16.160213 -18.94978,20.3247 -15.01489,4.164488 -41.52743,3.858868 -54.36426,-0.534887 -12.83682,-4.393755 -11.99634,-12.87502 -10.42999,-22.387687 1.56636,-9.512668 3.85873,-20.057559 1.79589,-26.246397 -2.06284,-6.188837 -8.48143,-8.02272 -15.24368,-5.386696 -6.76225,2.636023 -13.86801,9.741781 -18.14708,18.146964 -4.27908,8.405184 -5.73077,18.10862 -4.54643,27.201557 1.18435,9.092938 5.00464,17.573969 13.10426,22.922709 8.09963,5.34875 20.47762,7.56456 31.51859,2.48329 11.04097,-5.081265 20.74511,-17.459771 17.07771,-26.399282 -3.6674,-8.93951 -20.7071,-14.441116 -35.22475,-12.531023 -14.51766,1.910093 -26.51369,11.231843 -29.45556,23.877816 -2.94187,12.645969 3.17063,28.614889 16.31313,44.431719 13.14249,15.81683 33.31416,31.48043 55.12897,40.87871 21.81481,9.39828 45.27237,12.53105 56.54254,19.7132 11.27017,7.18214 10.35325,18.41437 1.03127,28.84441 -9.32198,10.43005 -27.04822,20.05723 -42.75055,20.70675 -15.70232,0.64951 -29.37917,-7.67885 -41.33726,-19.14029 -11.95808,-11.46143 -22.19679,-26.05541 -24.52713,-38.54839 -2.33035,-12.49299 3.24752,-22.88463 9.3219,-33.27601 6.07438,-10.39138 12.64581,-20.7834 19.2167,-31.17458"
		style="fill:none;stroke:#0000ff;stroke-width:0.35277778px;stroke-linecap:butt;stroke-linejoin:miter;stroke-opacity:1" />
</svg>
